<svg id="Layer_1" data-name="Layer 1" xmlns="http://www.w3.org/2000/svg" xmlns:xlink="http://www.w3.org/1999/xlink" viewBox="0 0 751.33 239.67">
  <defs>
    <style>
      .cls-1 {
        fill: url(#linear-gradient);
      }

      .cls-2 {
        fill: #54aca9;
      }

      .cls-2, .cls-3 {
        stroke: #fff;
        stroke-miterlimit: 10;
      }

      .cls-3 {
        fill: none;
      }

      .cls-4 {
        fill: #8da7ba;
      }

      .cls-5 {
        fill: #092a43;
      }

      .cls-6 {
        fill: #eebf70;
      }

      .cls-7 {
        font-size: 16px;
        font-family: OpenSans, Open Sans;
      }

      .cls-8 {
        mask: url(#mask);
      }

      .cls-9 {
        fill: url(#linear-gradient-2);
      }

      .cls-10 {
        fill: #fff;
      }
    </style>
    <linearGradient id="linear-gradient" x1="359.72" y1="58.97" x2="359.72" y2="55.52" gradientUnits="userSpaceOnUse">
      <stop offset="0" stop-color="#fff"/>
      <stop offset="0.86" stop-color="#231f20"/>
    </linearGradient>
    <mask id="mask" x="354.42" y="49.45" width="10.59" height="17.11" maskUnits="userSpaceOnUse">
      <path class="cls-1" d="M357.23,66.56l-2.81-7.48h1.36s1.93,5.47,2.08,6c.11-.39,5.85-15.62,5.85-15.62H365l-6.55,17.11Z"/>
    </mask>
    <linearGradient id="linear-gradient-2" x1="359.72" y1="66.56" x2="359.72" y2="49.45" gradientUnits="userSpaceOnUse">
      <stop offset="0.45" stop-color="#fff"/>
      <stop offset="0.86" stop-color="#fff" stop-opacity="0"/>
    </linearGradient>
  </defs>
  <title>bridge</title>
  <path class="cls-2" d="M173.12,240.17H-2.5c87.5,0,148-154.38,349.86-154.38l7.32,35.78s-83.34-7.76-136.88,118.6Z"/>
  <line class="cls-3" x1="73.54" y1="206.79" x2="234.27" y2="206.79"/>
  <line class="cls-3" x1="118.38" y1="171.45" x2="259.02" y2="171.45"/>
  <line class="cls-3" x1="228.16" y1="106.71" x2="260.03" y2="170.25"/>
  <line class="cls-3" x1="294.18" y1="90.15" x2="308.62" y2="132.76"/>
  <line class="cls-3" x1="198.74" y1="171.45" x2="198.74" y2="206.79"/>
  <line class="cls-3" x1="223.72" y1="206.79" x2="223.72" y2="226.97"/>
  <line class="cls-3" x1="115.89" y1="206.79" x2="115.89" y2="239.67"/>
  <line class="cls-3" x1="184.42" y1="126.89" x2="184.42" y2="171.45"/>
  <g>
    <path class="cls-2" d="M568.24,240.17H743.86c-87.5,0-148-154.38-349.86-154.38l-7.32,35.78s83.34-7.4,136.88,118.6Z"/>
    <line class="cls-3" x1="667.82" y1="206.79" x2="507.04" y2="206.79"/>
    <line class="cls-3" x1="622.88" y1="171.45" x2="482.67" y2="171.45"/>
    <line class="cls-3" x1="513.98" y1="106.94" x2="480.92" y2="169.98"/>
    <line class="cls-3" x1="447.17" y1="88.6" x2="432.74" y2="132.76"/>
    <line class="cls-3" x1="542.62" y1="171.45" x2="542.62" y2="206.79"/>
    <line class="cls-3" x1="517.63" y1="206.79" x2="517.63" y2="227"/>
    <line class="cls-3" x1="625.47" y1="206.79" x2="625.47" y2="239.67"/>
    <line class="cls-3" x1="556.94" y1="126.89" x2="556.94" y2="171.45"/>
  </g>
  <path class="cls-4" d="M320.23,34.56S317.86,23.4,327,24.24s1.56,15.84-1.2,15.84S320.23,34.56,320.23,34.56Z"/>
  <polygon class="cls-2" points="353.01 78.17 387.28 78.17 393.44 43.17 347.66 43.17 353.01 78.17"/>
  <path class="cls-5" d="M350.55,54.19s-14-1.45-17.44-7.61l15.75,1-.34-2.32s-21.87-2.1-28.29-10.66c0,0-15.59,1.2-12.11,50.33l-18.37,6-.92,6.24L292,94.4l19.53-4.06,3.6-.87,1.5-19.56s8.7-.9,12,3.39,6.16,13.38,6.16,13.38h8.83l-3.48-2.76s-.24-23.06-16.46-21.46L325,49.64a45.19,45.19,0,0,0,24.9,7.18Z"/>
  <path class="cls-4" d="M350.55,54.19s5.82-.16,4.28,2.72-4.89-.13-4.89-.13"/>
  <path class="cls-5" d="M386.31,43.68s16.43-24.11,19.77-24.11,21.42,13,21.55,39.89S432,91.18,432,91.18l-10.85.73,5.57-3.68s-9-22.62-9-30.92c0,0-9.37,7.36-9.37,15.8a74,74,0,0,1-1,13.4l-9.11-.2,4-3.42S399.58,60,409.26,53.44c0,0,1.37-12.18-3.58-15.53L394,49.55l-2.41-2.94s9.5-8.57,9.5-11.11-10,8.16-10,8.16Z"/>
  <path class="cls-4" d="M406.08,19.57s1.07-12.18-7.23-9.24S397,22.27,401.69,23.19"/>
  <path class="cls-4" d="M391.62,46.61s-3.61,2.21-2.21,4.08S394,49.55,394,49.55Z"/>
  <path class="cls-6" d="M335.9,26.9a6.63,6.63,0,0,1-.95.27l-14.7,1.9a1,1,0,0,1-1.13-.54,1,1,0,0,1,.3-1.16,1,1,0,0,0,.25-.56,6.43,6.43,0,0,1,12.64-1.41.83.83,0,0,0,.52.47c.81.21,1.64.34,2.45.53a4.53,4.53,0,0,1,.65.25Zm-12.69-4.17a6.81,6.81,0,0,1,4.13.07,7.06,7.06,0,0,1,3.4,2.46A4.89,4.89,0,0,0,323.21,22.73Z"/>
  <path class="cls-6" d="M390.26,15.52a4.53,4.53,0,0,1,.53-.45c.71-.44,1.45-.84,2.14-1.3a.83.83,0,0,0,.33-.61,6.43,6.43,0,0,1,12.4-2.82,1,1,0,0,0,.42.44c.42.21.72.5.66,1a1,1,0,0,1-.89.88l-14.51,3a6.63,6.63,0,0,1-1,.06Zm4.44-3a7.06,7.06,0,0,1,2.41-3.44A6.81,6.81,0,0,1,401,7.64,4.89,4.89,0,0,0,394.7,12.51Z"/>
  <text class="cls-7" transform="translate(439.96 48.96)">EDUCATORS/EMPLOYERS</text>
  <text class="cls-7" transform="translate(219.79 48.96)">VETERANS</text>
  <g>
    <g class="cls-8">
      <path class="cls-9" d="M357.23,66.56l-2.81-7.48h1.36s1.93,5.47,2.08,6c.11-.39,5.85-15.62,5.85-15.62H365l-6.55,17.11Z"/>
    </g>
    <path class="cls-10" d="M367,64.13l1.3.18a3.19,3.19,0,0,1-1.14,1.78,3.88,3.88,0,0,1-4.73-.38,3.94,3.94,0,0,1-1-2.83,4.12,4.12,0,0,1,1-2.92,3.28,3.28,0,0,1,2.51-1,3.19,3.19,0,0,1,2.44,1,4,4,0,0,1,.95,2.86c0,.07,0,.19,0,.34h-5.57a2.88,2.88,0,0,0,.7,1.89,2.08,2.08,0,0,0,1.56.66,1.93,1.93,0,0,0,1.19-.37A2.45,2.45,0,0,0,367,64.13Zm-4.16-2H367a2.51,2.51,0,0,0-.48-1.41A1.94,1.94,0,0,0,365,60a2,2,0,0,0-1.47.58A2.29,2.29,0,0,0,362.85,62.1Z"/>
    <path class="cls-10" d="M372.53,65.43l.18,1.12a4.74,4.74,0,0,1-1,.11,2.18,2.18,0,0,1-1.07-.22,1.22,1.22,0,0,1-.54-.57,4.54,4.54,0,0,1-.16-1.5V60.06H369v-1H370V57.23l1.27-.76v2.61h1.27v1h-1.27v4.39a2.22,2.22,0,0,0,.07.7.53.53,0,0,0,.22.25.84.84,0,0,0,.43.09A3.63,3.63,0,0,0,372.53,65.43Z"/>
    <path class="cls-10" d="M378.33,66.56V56.24h1.37V66.56Z"/>
    <path class="cls-10" d="M384.26,65.43l.18,1.12a4.74,4.74,0,0,1-1,.11,2.18,2.18,0,0,1-1.07-.22,1.22,1.22,0,0,1-.54-.57,4.54,4.54,0,0,1-.16-1.5V60.06h-.94v-1h.94V57.23l1.27-.76v2.61h1.27v1H383v4.39a2.22,2.22,0,0,0,.07.7.53.53,0,0,0,.22.25.84.84,0,0,0,.43.09A3.63,3.63,0,0,0,384.26,65.43Z"/>
    <polygon class="cls-10" points="375.16 59.38 375.75 61.2 377.65 61.2 376.11 62.32 376.7 64.13 375.16 63.01 373.61 64.13 374.2 62.32 372.66 61.2 374.57 61.2 375.16 59.38"/>
  </g>
</svg>
