<svg id="Layer_1" data-name="Layer 1" xmlns="http://www.w3.org/2000/svg" viewBox="0 0 600 600">
  <defs>
    <style>
      .cls-1, .cls-4 {
        fill: #fff;
      }

      .cls-1 {
        stroke: #9c98d9;
        stroke-miterlimit: 10;
        stroke-width: 2.49px;
      }

      .cls-2 {
        fill: #9c98d9;
      }

      .cls-3 {
        fill: #6e768f;
      }
      .cls-5 {
        fill: #54aca9;
      }

      .cls-6 {
        fill: #5fcac6;
      }
    </style>
  </defs>
  <title>icons</title>
    <g>
      <circle class="cls-2" cx="299.48" cy="299.95" r="294.48"/>
      <g>
      <polygon class="cls-3" points="481.96 151.03 342.73 340.82 292.16 290.25 481.96 151.03"/>
      <polygon class="cls-3" points="150.96 481.13 290.18 291.33 340.75 341.9 150.96 481.13"/>
      <path class="cls-3" d="M418.47,335.26l76.38-11.74-77.49-11.91a96.66,96.66,0,0,0-81.67-79.16L323.17,151l-12.48,81.21a96.65,96.65,0,0,0-83.37,79.05l-79.63,12.24,78.48,12.06a96.6,96.6,0,0,0,84.9,88.17l12.11,78.76,12.14-79A96.61,96.61,0,0,0,418.47,335.26Zm-96.6,65.36a72.65,72.65,0,0,1-.11-145.29c39.16,0,70.25,31.16,72.25,70v5.33C392,369.46,361,400.62,321.86,400.62Z"/>
      <path class="cls-4" d="M395.4,307.25l76.38-11.74L394.29,283.6a96.66,96.66,0,0,0-81.67-79.16L300.1,123l-12.48,81.21a96.65,96.65,0,0,0-83.37,79.05l-79.63,12.24,78.48,12.06A96.6,96.6,0,0,0,288,395.74L300.1,474.5l12.14-79A96.61,96.61,0,0,0,395.4,307.25ZM298.83,372.6a72.65,72.65,0,0,1-.1-145.29c39.16,0,72.27,31.16,72.27,70v5.33C371,341.45,338,372.6,298.83,372.6Z"/>
      <polygon class="cls-5" points="131.47 457.31 270.7 267.51 321.27 318.08 131.47 457.31"/>
      <polygon class="cls-6" points="462.47 124.99 323.25 314.79 272.68 264.22 462.47 124.99"/>
    </g>
    </g>
          <!-- <g transform = "translate(100, 100) rotate(45 60 60)"> -->
</svg>
