<svg id="Layer_3" data-name="Layer 3" xmlns="http://www.w3.org/2000/svg" viewBox="0 0 600 600">
  <defs>
    <style>
      .cls-1 {
        fill: #9c98d9;
      }

      .cls-2 {
        fill: #6e768f;
      }

      .cls-3 {
        fill: #5fcac6;
      }
    </style>
  </defs>
  <title>icons</title>
  <g>
    <circle class="cls-1" cx="300" cy="300" r="295"/>
    <g class="icon3">
    <path class="cls-2" d="M518,289.81,445.6,256.67l2.19,23.18c-33.41,5.69-70.63,15.95-100.36,34.34,4.94-34.66,4.06-73.66-6.83-116.26l21.94-8-61.09-51-13.64,78.4,21.39-7.84c13.11,53.6,10.14,105.69-8.79,155.52-.08.18-.17.35-.25.53l0,0a292.23,292.23,0,0,1-22.85,46.57c-30.87,51.17-69,80.29-69.38,80.58l20,26.58c1.74-1.3,42.94-32.57,77.19-88.85a321.09,321.09,0,0,0,25.42-51.57l.06,0c17.87-40.75,78.52-58.37,120.32-65.8l2.16,22.85Z"/>
    <path class="cls-3" d="M475.54,244.94,401.9,214.75,405,237.82c-33.15,7-69.93,18.79-98.89,38.36,3.53-34.83,1.08-73.76-11.51-115.89l21.59-8.92-63.1-48.5-10.46,78.89,21.05-8.7c15.26,53,14.4,105.19-2.51,155.75-.07.18-.16.36-.23.54l0,0a292.23,292.23,0,0,1-21,47.46c-28.78,52.38-65.7,83-66.07,83.32l21,25.75c1.68-1.37,41.59-34.28,73.54-91.9a321.09,321.09,0,0,0,23.31-52.56l.06,0C308.16,300,368,280,409.51,270.88l3.08,22.74Z"/>
  </g>
  </g>
</svg>
