<svg id="Layer_1" data-name="Layer 1" xmlns="http://www.w3.org/2000/svg" viewBox="0 0 600 600">
  <defs>
    <style>
      .cls-1 {
        fill: #9c98d9;
      }

      .cls-2 {
        fill: #6e768f;
      }

      .cls-3 {
        fill: #5fcac6;
      }
    </style>
  </defs>
  <title>icons</title>
  <g>
    <circle class="cls-1" cx="300" cy="300" r="295"/>
    <g class="icon">
    <path class="cls-2" d="M305.23,513.93l5.39-45.79q-18.09-2.31-27.32-4.43t-19.63-5.2l-8.47-1.92,6.16-51.18q31.94,4.24,57,5.77l5.77-47.33q-40-13.47-56.38-32.33t-16.36-45.79q0-36.94,24.44-58.3T341,206.06l2.69-.38,6.93-55.42h34.63L378,208.76q6.15.39,22.9,2.89t23.67,4.43l5.39,1.54-5.39,52.34q-29.64-3.08-54.26-4.62l-5,43.48q26.17,9.62,40.79,19.24T427.61,351q6.93,13.28,6.93,33.67,0,42.34-25.59,64.07t-66.38,21.74h3.08l-5.77,46.18Q305.23,515.47,305.23,513.93Zm30.79-249a26.43,26.43,0,0,0-13.08,6.54q-5.39,5-5.39,10,0,5.77,15,15ZM364.5,403.48q3.84-5.39,3.85-10.39,0-8.46-11.16-17.7L353,411.56Q360.65,408.87,364.5,403.48Z"/>
    <path class="cls-3" d="M262.29,480.48l5.39-45.79q-18.09-2.31-27.32-4.43t-19.63-5.2l-8.47-1.92L218.42,372q31.94,4.24,57,5.77l5.77-47.33q-40-13.47-56.38-32.33t-16.36-45.79q0-36.94,24.44-58.3t65.23-21.36l2.69-.38,6.93-55.42h34.63L335,175.32q6.15.39,22.9,2.89t23.67,4.43l5.39,1.54-5.39,52.34q-29.64-3.08-54.26-4.62l-5,43.48q26.17,9.62,40.79,19.24t21.55,22.9q6.93,13.28,6.93,33.67,0,42.34-25.59,64.07T299.62,437h3.08l-5.77,46.18Q262.29,482,262.29,480.48Zm30.79-249A26.43,26.43,0,0,0,280,238q-5.39,5-5.39,10,0,5.77,15,15ZM321.55,370q3.84-5.39,3.85-10.39,0-8.46-11.16-17.7L310,378.12Q317.7,375.43,321.55,370Z"/>
  </g>
  </g>
</svg>
