<svg id="Layer_1" data-name="Layer 1" xmlns="http://www.w3.org/2000/svg" xmlns:xlink="http://www.w3.org/1999/xlink" viewBox="0 0 166.5 100">
  <defs>
    <style>
      .cls-1 {
        fill: url(#linear-gradient);
      }

      .cls-2 {
        mask: url(#mask);
      }

      .cls-3 {
        fill: url(#linear-gradient-2);
      }
    </style>
    <linearGradient id="linear-gradient" x1="31.95" y1="55.86" x2="31.95" y2="37.86" gradientUnits="userSpaceOnUse">
      <stop offset="0" stop-color="#fff"/>
      <stop offset="0.86" stop-color="#231f20"/>
    </linearGradient>
    <mask id="mask" x="4.29" y="6.14" width="55.31" height="89.35" maskUnits="userSpaceOnUse">
      <path class="cls-1" d="M19,95.49,4.29,56.44h7.1S21.47,85,22.24,87.7c.59-2.06,30.57-81.56,30.57-81.56h6.8L25.41,95.49Z"/>
    </mask>
    <linearGradient id="linear-gradient-2" x1="31.95" y1="95.49" x2="31.95" y2="6.14" gradientUnits="userSpaceOnUse">
      <stop offset="0.45"/>
      <stop offset="0.86" stop-color="#231f20" stop-opacity="0"/>
    </linearGradient>
  </defs>
  <title>icon</title>
  <g>
    <g class="cls-2">
      <path class="cls-3" d="M19,95.49,4.29,56.44h7.1S21.47,85,22.24,87.7c.59-2.06,30.57-81.56,30.57-81.56h6.8L25.41,95.49Z"/>
    </g>
    <path d="M70,82.82l6.81.92a16.65,16.65,0,0,1-6,9.28,18,18,0,0,1-11.14,3.3q-8.54,0-13.54-5.26t-5-14.75q0-9.82,5.06-15.25a17.12,17.12,0,0,1,13.12-5.43,16.66,16.66,0,0,1,12.76,5.3q4.95,5.31,4.95,14.92c0,.39,0,1,0,1.76H47.92q.37,6.44,3.64,9.87a10.84,10.84,0,0,0,8.17,3.42A10.08,10.08,0,0,0,65.95,89,12.79,12.79,0,0,0,70,82.82ZM48.33,72.18H70.11q-.44-4.9-2.5-7.34A10.15,10.15,0,0,0,59.42,61a10.53,10.53,0,0,0-7.66,3A12,12,0,0,0,48.33,72.18Z"/>
    <path d="M98.87,89.58l.92,5.84a24.77,24.77,0,0,1-5,.58,11.36,11.36,0,0,1-5.6-1.14,6.38,6.38,0,0,1-2.8-3Q85.58,90,85.58,84V61.55H80.67V56.44h4.91V46.78l6.65-4V56.44h6.65v5.11H92.22v22.9a11.59,11.59,0,0,0,.35,3.65,2.76,2.76,0,0,0,1.14,1.29,4.38,4.38,0,0,0,2.26.48A19,19,0,0,0,98.87,89.58Z"/>
    <path d="M129.13,95.49V41.61h7.16V95.49Z"/>
    <path d="M160.08,89.58l.92,5.84a24.76,24.76,0,0,1-5,.58,11.36,11.36,0,0,1-5.6-1.14,6.38,6.38,0,0,1-2.8-3q-.81-1.86-.81-7.82V61.55h-4.91V56.44h4.91V46.78l6.65-4V56.44h6.65v5.11h-6.65v22.9a11.59,11.59,0,0,0,.35,3.65,2.76,2.76,0,0,0,1.14,1.29,4.38,4.38,0,0,0,2.26.48A19,19,0,0,0,160.08,89.58Z"/>
    <polygon points="112.56 58.01 115.64 67.48 125.59 67.48 117.54 73.33 120.61 82.79 112.56 76.94 104.51 82.79 107.59 73.33 99.54 67.48 109.49 67.48 112.56 58.01"/>
  </g>
</svg>
